<?xml version="1.0" standalone="no"?>
<!DOCTYPE svg PUBLIC "-//W3C//DTD SVG 20010904//EN"
 "http://www.w3.org/TR/2001/REC-SVG-20010904/DTD/svg10.dtd">
<svg version="1.0" xmlns="http://www.w3.org/2000/svg"
 width="300.000000pt" height="106.000000pt" viewBox="0 0 300.000000 106.000000"
 preserveAspectRatio="xMidYMid meet">
<metadata>
Created by potrace 1.10, written by Peter Selinger 2001-2011
</metadata>
<g transform="translate(0.000000,106.000000) scale(0.100000,-0.100000)"
fill="#000000" stroke="none">
<path d="M1460 1023 c-8 -3 -24 -14 -36 -24 -11 -10 -42 -23 -68 -28 -59 -11
-97 -46 -101 -92 -4 -47 -4 -46 -19 -61 -7 -8 -20 -28 -29 -44 -14 -28 -14
-33 3 -71 10 -22 23 -43 28 -47 6 -4 14 -27 18 -53 8 -57 43 -93 89 -93 21 0
46 -11 70 -30 48 -38 78 -38 135 0 25 16 58 30 73 30 16 0 37 5 48 10 23 13
49 61 49 92 0 13 11 39 23 58 41 61 41 97 0 138 -7 7 -15 24 -18 38 -3 13 -7
35 -10 47 -8 40 -53 77 -93 77 -22 0 -47 9 -67 24 -35 27 -71 38 -95 29z m64
-39 c9 -8 16 -19 16 -24 0 -11 49 -23 87 -21 24 2 35 -4 48 -23 10 -15 15 -35
12 -48 -7 -25 7 -54 40 -85 29 -28 29 -58 0 -86 -34 -31 -45 -58 -40 -92 6
-41 -19 -61 -81 -68 -39 -4 -54 -11 -69 -31 -26 -36 -80 -36 -103 -1 -18 28
-46 40 -90 36 -40 -3 -58 19 -59 76 -2 36 -8 50 -33 73 -38 35 -40 53 -7 86
36 36 46 59 39 92 -8 39 25 75 64 71 39 -4 73 10 95 37 21 28 58 31 81 8z"/>
<path d="M1465 950 c-4 -7 -3 -16 3 -22 14 -14 45 -2 40 15 -6 16 -34 21 -43
7z"/>
<path d="M1413 903 c-7 -2 -13 -15 -13 -27 0 -28 -29 -56 -57 -56 -29 0 -33
-20 -11 -51 16 -22 17 -29 7 -52 -7 -15 -16 -27 -21 -27 -5 0 -4 -9 2 -20 6
-11 15 -18 21 -14 18 11 59 -25 59 -52 0 -31 23 -40 52 -20 29 20 47 20 69 0
24 -22 49 -11 49 20 0 27 41 63 59 52 6 -4 15 2 20 13 8 14 7 22 -4 31 -19 16
-19 64 -1 80 20 16 9 40 -19 40 -27 0 -55 29 -55 57 0 27 -27 37 -46 18 -20
-19 -58 -19 -74 0 -13 16 -17 17 -37 8z m155 -79 c33 -34 35 -41 33 -88 -2
-41 -8 -57 -33 -83 -27 -28 -37 -32 -81 -31 -43 0 -54 5 -83 34 -30 29 -34 40
-34 84 0 45 4 54 32 78 17 15 50 30 72 33 23 3 45 7 50 7 5 1 25 -14 44 -34z"/>
<path d="M1325 890 c-4 -7 -3 -16 3 -22 14 -14 45 -2 40 15 -6 16 -34 21 -43
7z"/>
<path d="M1610 880 c0 -15 5 -20 18 -18 9 2 17 10 17 18 0 8 -8 16 -17 18 -13
2 -18 -3 -18 -18z"/>
<path d="M1265 750 c-4 -7 -3 -16 3 -22 14 -14 45 -2 40 15 -6 16 -34 21 -43
7z"/>
<path d="M1670 741 c0 -15 6 -21 21 -21 25 0 22 33 -4 38 -12 2 -17 -3 -17
-17z"/>
<path d="M1323 604 c-7 -20 17 -37 34 -23 15 13 6 39 -13 39 -8 0 -17 -7 -21
-16z"/>
<path d="M1613 604 c-8 -21 13 -42 28 -27 13 13 5 43 -11 43 -6 0 -13 -7 -17
-16z"/>
<path d="M1466 545 c-3 -9 1 -18 10 -22 19 -7 39 11 30 26 -10 16 -33 13 -40
-4z"/>
<path d="M1890 392 c-8 -1 -31 -25 -50 -52 -19 -27 -38 -49 -42 -50 -3 0 -22
22 -42 50 -35 49 -36 50 -88 49 -58 -1 -88 -13 -88 -33 0 -7 -9 -21 -21 -32
-24 -22 -45 -12 -69 32 -32 56 -89 25 -90 -48 0 -20 -4 -26 -15 -22 -8 3 -17
14 -20 24 -10 33 -62 80 -87 80 -28 0 -64 -36 -102 -102 -15 -27 -31 -48 -36
-48 -5 0 -17 26 -26 58 -10 31 -24 65 -32 75 -22 25 -58 21 -79 -8 -52 -75
-46 -73 -79 -24 -56 83 -104 61 -129 -60 -9 -42 -19 -84 -21 -93 -3 -9 4 -26
15 -37 24 -24 57 -18 74 16 l13 24 28 -26 c33 -30 69 -32 98 -5 27 25 35 25
48 1 8 -16 21 -20 79 -20 58 0 72 3 89 22 32 34 72 33 118 -4 25 -20 45 -28
59 -25 11 3 35 6 53 6 28 0 35 5 47 34 23 55 62 58 82 7 6 -16 19 -34 30 -40
38 -19 75 40 64 102 -4 20 22 -2 57 -48 60 -80 98 -70 165 43 18 28 38 52 47
52 19 0 58 -57 71 -104 14 -52 42 -64 74 -32 14 14 25 35 25 46 0 12 18 47 40
77 42 59 48 81 28 101 -20 20 -54 14 -89 -18 l-34 -29 -27 26 c-26 25 -98 44
-138 35z m-980 -93 c19 -39 37 -72 41 -75 3 -2 23 30 45 72 24 47 44 74 53 72
9 -2 24 -40 41 -105 l26 -103 -22 0 c-23 0 -25 6 -47 125 -2 14 -14 -1 -40
-52 -21 -41 -44 -73 -52 -73 -8 0 -31 32 -52 73 l-37 72 -14 -72 c-13 -64 -17
-73 -37 -73 l-22 0 24 93 c13 50 26 98 28 105 10 29 33 8 65 -59z m442 -30
c32 -52 57 -97 58 -101 0 -5 -11 -8 -24 -8 -17 0 -27 9 -36 30 -11 27 -16 30
-61 30 -39 0 -47 3 -43 15 4 9 19 15 35 15 33 0 35 6 11 38 l-17 22 -45 -75
c-35 -58 -50 -75 -67 -75 -13 0 -23 2 -23 4 0 8 102 170 118 189 9 10 20 16
26 14 6 -2 37 -46 68 -98z m118 -4 c0 -98 -1 -105 -20 -105 -19 0 -20 7 -20
105 0 98 1 105 20 105 19 0 20 -7 20 -105z m170 0 c0 -98 -1 -105 -20 -105
-17 0 -20 7 -20 44 l0 43 -57 -1 c-47 -1 -58 2 -61 17 -3 15 5 17 57 17 l61 0
0 45 c0 38 3 45 20 45 19 0 20 -7 20 -105z m108 30 c24 -41 47 -73 52 -70 4 2
26 36 49 75 42 70 42 70 85 70 41 0 47 -4 82 -50 21 -27 41 -50 44 -50 3 0 20
23 38 50 25 39 38 50 58 50 20 0 24 -3 17 -12 -101 -130 -101 -130 -96 -164 5
-30 3 -34 -16 -34 -17 0 -21 6 -21 33 0 24 -12 50 -46 93 -25 32 -49 63 -53
67 -5 5 -36 -37 -71 -92 -34 -56 -67 -101 -74 -101 -10 0 -136 190 -136 206 0
2 10 4 23 4 17 0 32 -17 65 -75z"/>
</g>
</svg>
